<svg width="350" height="205" viewBox="0 0 350 205" fill="none" xmlns="http://www.w3.org/2000/svg">
<rect x="0.5" y="0.5" width="349" height="204" rx="7.5" fill="#1F2832" stroke="#121B20"/>
<rect x="6.5" y="10.5" width="337" height="57" rx="7.5" fill="#323F50" stroke="#121B20"/>
<rect x="11.5" y="15.5" width="92" height="47" rx="5.5" fill="#1F2732" stroke="#121B20"/>
<rect x="16.5" y="18.5" width="82" height="11" rx="2.5" fill="#1C222A" stroke="#121B20"/>
<rect x="16.5" y="33.5" width="82" height="11" rx="2.5" fill="#1C222A" stroke="#121B20"/>
<rect x="16.5" y="48.5" width="82" height="11" rx="2.5" fill="#1C222A" stroke="#121B20"/>
<rect x="109.5" y="15.5" width="92" height="47" rx="5.5" fill="#1F2732" stroke="#121B20"/>
<rect x="114.5" y="18.5" width="82" height="11" rx="2.5" fill="#1C222A" stroke="#121B20"/>
<rect x="114.5" y="33.5" width="82" height="11" rx="2.5" fill="#1C222A" stroke="#121B20"/>
<rect x="114.5" y="48.5" width="82" height="11" rx="2.5" fill="#1C222A" stroke="#121B20"/>
<rect x="207.5" y="15.5" width="92" height="47" rx="5.5" fill="#1F2732" stroke="#121B20"/>
<rect x="212.5" y="18.5" width="82" height="11" rx="2.5" fill="#1C222A" stroke="#121B20"/>
<rect x="212.5" y="33.5" width="82" height="11" rx="2.5" fill="#1C222A" stroke="#121B20"/>
<rect x="212.5" y="48.5" width="82" height="11" rx="2.5" fill="#1C222A" stroke="#121B20"/>
<rect x="313.5" y="35.5" width="14" height="5" rx="2.5" fill="#4D6383" stroke="#121B20"/>
<rect x="333.5" y="35.5" width="5" height="5" rx="2.5" fill="#4E7243" stroke="#121B20"/>
<rect x="6.5" y="74.5" width="337" height="57" rx="7.5" fill="#323F50" stroke="#121B20"/>
<rect x="11.5" y="79.5" width="92" height="47" rx="5.5" fill="#1F2732" stroke="#121B20"/>
<rect x="16.5" y="82.5" width="82" height="11" rx="2.5" fill="#1C222A" stroke="#121B20"/>
<rect x="16.5" y="97.5" width="82" height="11" rx="2.5" fill="#1C222A" stroke="#121B20"/>
<rect x="16.5" y="112.5" width="82" height="11" rx="2.5" fill="#1C222A" stroke="#121B20"/>
<rect x="109.5" y="79.5" width="92" height="47" rx="5.5" fill="#1F2732" stroke="#121B20"/>
<rect x="114.5" y="82.5" width="82" height="11" rx="2.5" fill="#1C222A" stroke="#121B20"/>
<rect x="114.5" y="97.5" width="82" height="11" rx="2.5" fill="#1C222A" stroke="#121B20"/>
<rect x="114.5" y="112.5" width="82" height="11" rx="2.5" fill="#1C222A" stroke="#121B20"/>
<rect x="207.5" y="79.5" width="92" height="47" rx="5.5" fill="#1F2732" stroke="#121B20"/>
<rect x="212.5" y="82.5" width="82" height="11" rx="2.5" fill="#1C222A" stroke="#121B20"/>
<rect x="212.5" y="97.5" width="82" height="11" rx="2.5" fill="#1C222A" stroke="#121B20"/>
<rect x="212.5" y="112.5" width="82" height="11" rx="2.5" fill="#1C222A" stroke="#121B20"/>
<rect x="313.5" y="99.5" width="14" height="5" rx="2.5" fill="#4D6383" stroke="#121B20"/>
<rect x="333.5" y="99.5" width="5" height="5" rx="2.5" fill="#4E7243" stroke="#121B20"/>
<rect x="6.5" y="138.5" width="337" height="57" rx="7.5" fill="#323F50" stroke="#121B20"/>
<rect x="11.5" y="143.5" width="92" height="47" rx="5.5" fill="#1F2732" stroke="#121B20"/>
<rect x="16.5" y="146.5" width="82" height="11" rx="2.5" fill="#1C222A" stroke="#121B20"/>
<rect x="16.5" y="161.5" width="82" height="11" rx="2.5" fill="#1C222A" stroke="#121B20"/>
<rect x="16.5" y="176.5" width="82" height="11" rx="2.5" fill="#1C222A" stroke="#121B20"/>
<rect x="109.5" y="143.5" width="92" height="47" rx="5.5" fill="#1F2732" stroke="#121B20"/>
<rect x="114.5" y="146.5" width="82" height="11" rx="2.5" fill="#1C222A" stroke="#121B20"/>
<rect x="114.5" y="161.5" width="82" height="11" rx="2.5" fill="#1C222A" stroke="#121B20"/>
<rect x="114.5" y="176.5" width="82" height="11" rx="2.5" fill="#1C222A" stroke="#121B20"/>
<rect x="207.5" y="143.5" width="92" height="47" rx="5.5" fill="#1F2732" stroke="#121B20"/>
<rect x="212.5" y="146.5" width="82" height="11" rx="2.5" fill="#1C222A" stroke="#121B20"/>
<rect x="212.5" y="161.5" width="82" height="11" rx="2.5" fill="#1C222A" stroke="#121B20"/>
<rect x="212.5" y="176.5" width="82" height="11" rx="2.5" fill="#1C222A" stroke="#121B20"/>
<rect x="313.5" y="163.5" width="14" height="5" rx="2.5" fill="#4D6383" stroke="#121B20"/>
<rect x="333.5" y="163.5" width="5" height="5" rx="2.5" fill="#4E7243" stroke="#121B20"/>
</svg>
