<svg width="350" height="205" viewBox="0 0 350 205" fill="none" xmlns="http://www.w3.org/2000/svg">
<rect x="0.5" y="0.5" width="349" height="204" rx="7.5" fill="#1D272E" stroke="#121B20"/>
<path d="M6 77C6 75.8954 6.89543 75 8 75H195C196.105 75 197 75.8954 197 77V204H6V77Z" fill="#283545"/>
<path d="M0.5 8C0.5 3.85786 3.85786 0.5 8 0.5H342C346.142 0.5 349.5 3.85786 349.5 8V19.5H0.5V8Z" fill="#2F3B45" stroke="#121B20"/>
<rect x="6" y="7" width="6" height="6" rx="3" fill="#DF4747"/>
<rect x="16" y="7" width="6" height="6" rx="3" fill="#DAB454"/>
<rect x="26" y="7" width="6" height="6" rx="3" fill="#67DB5D"/>
<rect x="1" y="20" width="348" height="22" fill="#354458"/>
<rect x="6" y="48" width="338" height="22" rx="2" fill="#283443"/>
<rect x="203" y="77" width="141" height="11" rx="2" fill="#26313F"/>
<rect x="203" y="189" width="141" height="11" rx="5.5" fill="#344358"/>
<rect x="203" y="92" width="115" height="11" rx="2" fill="#26313F"/>
<rect x="203" y="107" width="99" height="11" rx="2" fill="#26313F"/>
<rect x="203" y="130" width="141" height="48" rx="2" fill="#283443"/>
</svg>
